<?xml version="1.0" encoding="utf-8"?>
<!-- Generator: Adobe Illustrator 17.0.1, SVG Export Plug-In . SVG Version: 6.00 Build 0)  -->
<!DOCTYPE svg PUBLIC "-//W3C//DTD SVG 1.1//EN" "http://www.w3.org/Graphics/SVG/1.1/DTD/svg11.dtd">
<svg version="1.1" id="Capa_1" xmlns="http://www.w3.org/2000/svg" xmlns:xlink="http://www.w3.org/1999/xlink" x="0px" y="0px"
	 width="143.15px" height="26.582px" viewBox="0 0 143.15 26.582" enable-background="new 0 0 143.15 26.582" xml:space="preserve">
<g id="GUIDES">
</g>
<g>
	<g>
		<path fill="#003366" d="M45.08,7.774c-3.93,0-6.008,1.887-6.008,5.459V16.6c0,3.573,2.078,5.46,6.008,5.46s6.008-1.887,6.008-5.46
			v-3.366C51.088,9.661,49.01,7.774,45.08,7.774z M42.82,13.124c0-1.47,0.676-2.096,2.261-2.096c1.585,0,2.26,0.626,2.26,2.096
			v3.585c0,1.471-0.675,2.098-2.26,2.098s-2.261-0.627-2.261-2.098V13.124z"/>
		<path fill="#003366" d="M61.251,7.774c-1.486,0-3.504,0.511-5.212,1.313l-0.205-0.699c-0.058-0.201-0.243-0.34-0.454-0.34h-2.073
			c-0.262,0-0.473,0.212-0.473,0.474v12.79c0,0.262,0.211,0.476,0.473,0.476h2.799c0.263,0,0.476-0.214,0.476-0.476v-8.858
			c1.007-0.513,2.425-1.042,3.271-1.042c0.63,0,0.866,0.234,0.866,0.864v9.036c0,0.262,0.213,0.476,0.473,0.476h2.8
			c0.261,0,0.474-0.214,0.474-0.476v-9.391C64.465,9.169,63.383,7.774,61.251,7.774z"/>
		<path fill="#003366" d="M74.557,2.74c-0.756-0.191-1.62-0.298-2.445-0.298c-2.99,0-4.446,1.419-4.446,4.338v1.656h-1.552
			c-0.263,0-0.473,0.213-0.473,0.475v2.115c0,0.261,0.21,0.474,0.473,0.474h1.552v9.812c0,0.262,0.214,0.476,0.475,0.476h2.799
			c0.261,0,0.474-0.214,0.474-0.476V11.5h2.75c0.248,0,0.454-0.193,0.47-0.44l0.003-2.113c0-0.156-0.037-0.26-0.128-0.357
			c-0.088-0.096-0.213-0.152-0.345-0.152h-2.75V6.972c0-1.023,0.197-1.385,1.302-1.385c0.345,0,0.865,0.052,1.364,0.138
			c0.125,0.021,0.254-0.009,0.356-0.086c0.104-0.075,0.173-0.189,0.191-0.317l0.283-2.057C74.943,3.026,74.793,2.8,74.557,2.74z"/>
		<path fill="#003366" d="M79.618,2.81h-2.801c-0.26,0-0.473,0.213-0.473,0.475v18.027c0,0.262,0.213,0.476,0.473,0.476h2.801
			c0.26,0,0.473-0.214,0.473-0.476V3.284C80.091,3.022,79.878,2.81,79.618,2.81z"/>
		<path fill="#003366" d="M93.325,8.048h-2.8c-0.26,0-0.474,0.212-0.474,0.474v8.858c-1.009,0.513-2.427,1.042-3.272,1.042
			c-0.631,0-0.866-0.232-0.866-0.863V8.521c0-0.262-0.213-0.474-0.474-0.474h-2.8c-0.261,0-0.474,0.212-0.474,0.474v9.394
			c0,2.749,1.082,4.145,3.218,4.145c1.482,0,3.501-0.511,5.208-1.313l0.206,0.698c0.06,0.201,0.245,0.342,0.455,0.342h2.072
			c0.26,0,0.473-0.214,0.473-0.476V8.521C93.798,8.26,93.585,8.048,93.325,8.048z"/>
		<path fill="#003366" d="M101.159,7.774c-3.749,0-5.733,1.868-5.733,5.404v3.53c0,3.651,1.855,5.351,5.844,5.351
			c1.624,0,3.355-0.284,4.747-0.778c0.223-0.079,0.351-0.311,0.304-0.543l-0.413-2.002c-0.026-0.131-0.107-0.241-0.216-0.311
			c-0.113-0.067-0.251-0.086-0.377-0.05c-1.285,0.363-2.508,0.539-3.743,0.539c-2.042,0-2.398-0.657-2.398-2.042v-0.48h6.944
			c0.263,0,0.473-0.211,0.473-0.473v-2.576C106.59,9.544,104.866,7.774,101.159,7.774z M99.173,13.305V12.85
			c0-1.318,0.639-1.932,2.013-1.932c1.52,0,1.824,0.739,1.824,1.932v0.455H99.173z"/>
		<path fill="#003366" d="M116.704,7.774c-1.485,0-3.505,0.511-5.214,1.313l-0.203-0.699c-0.057-0.201-0.245-0.34-0.455-0.34h-2.072
			c-0.26,0-0.473,0.212-0.473,0.474v12.79c0,0.262,0.213,0.476,0.473,0.476h2.8c0.261,0,0.474-0.214,0.474-0.476v-8.858
			c1.009-0.513,2.426-1.042,3.273-1.042c0.63,0,0.865,0.234,0.865,0.864v9.036c0,0.262,0.213,0.476,0.473,0.476h2.801
			c0.26,0,0.473-0.214,0.473-0.476v-9.391C119.918,9.169,118.837,7.774,116.704,7.774z"/>
		<path fill="#003366" d="M130.698,18.889c-0.021-0.13-0.094-0.246-0.203-0.32c-0.11-0.074-0.245-0.101-0.374-0.07
			c-0.802,0.183-1.642,0.28-2.433,0.28c-1.777,0-2.288-0.451-2.288-2.014v-3.696c0-1.563,0.511-2.014,2.288-2.014
			c0.486,0,1.539,0.073,2.437,0.279c0.125,0.029,0.263,0.005,0.37-0.068c0.109-0.076,0.184-0.191,0.203-0.321l0.332-2.217
			c0.035-0.232-0.109-0.455-0.335-0.524c-1.079-0.318-2.339-0.43-3.092-0.43c-4.226,0-5.95,1.542-5.95,5.323v3.64
			c0,3.78,1.725,5.322,5.95,5.322c1.032,0,2.217-0.165,3.095-0.43c0.226-0.067,0.367-0.291,0.332-0.523L130.698,18.889z"/>
		<path fill="#003366" d="M137.786,7.774c-3.749,0-5.734,1.868-5.734,5.404v3.53c0,3.651,1.859,5.351,5.845,5.351
			c1.624,0,3.354-0.284,4.746-0.778c0.223-0.079,0.356-0.311,0.305-0.543l-0.411-2.002c-0.028-0.131-0.106-0.241-0.22-0.311
			c-0.112-0.067-0.247-0.086-0.376-0.05c-1.282,0.363-2.509,0.539-3.743,0.539c-2.038,0-2.398-0.657-2.398-2.042v-0.48h6.948
			c0.26,0,0.473-0.211,0.473-0.473v-2.576C143.22,9.544,141.492,7.774,137.786,7.774z M135.799,13.305V12.85
			c0-1.318,0.64-1.932,2.016-1.932c1.518,0,1.821,0.739,1.821,1.932v0.455H135.799z"/>
	</g>
	<path fill="#003366" d="M33.14,6.432c1.121,0,2.671,0.153,4.148,0.411c0.128,0.023,0.258-0.008,0.361-0.085
		c0.105-0.077,0.173-0.192,0.189-0.321l0.316-2.463c0.03-0.24-0.125-0.464-0.359-0.52c-1.481-0.355-3.175-0.55-4.767-0.55
		c-4.439,0-6.692,1.846-6.692,5.488v8.211c0,3.643,2.253,5.486,6.692,5.486c1.592,0,3.285-0.194,4.767-0.548
		c0.234-0.057,0.39-0.281,0.359-0.521l-0.316-2.462c-0.017-0.128-0.084-0.244-0.189-0.321c-0.104-0.077-0.235-0.108-0.362-0.087
		c-1.477,0.259-3.028,0.413-4.148,0.413c-2.203,0-2.946-0.646-2.946-2.562V8.993C30.194,7.077,30.937,6.432,33.14,6.432z"/>
	<g>
		<path fill="#003366" d="M17.091,16.994c-0.305-0.599-0.664-1.201-1.083-1.816c-0.301-0.441-0.624-0.868-0.962-1.289
			c-0.136-0.17-0.08-0.384,0.025-0.488c0.104-0.107,0.209-0.212,0.312-0.318c1.44-1.471,2.932-2.989,4.074-4.632
			c1.215-1.746,1.889-3.402,2.059-5.106c0.017-0.173-0.062-0.355-0.199-0.46c-0.091-0.068-0.201-0.105-0.311-0.105
			c-0.063,0-0.125,0.011-0.184,0.034c-1.108,0.424-2.234,0.744-3.261,0.984c-0.209,0.049-0.378,0.204-0.448,0.391
			c-0.749,2.051-2.66,4.002-4.664,6.047c-0.082,0.076-0.194,0.177-0.378,0.177c-0.182,0-0.294-0.097-0.376-0.177
			C9.691,8.19,7.78,6.245,7.033,4.196C6.962,4.01,6.792,3.853,6.584,3.805C5.555,3.566,4.43,3.217,3.323,2.794
			c-0.06-0.023-0.122-0.035-0.184-0.035c-0.111,0-0.221,0.036-0.31,0.105C2.687,2.972,2.612,3.146,2.63,3.323
			C2.8,5.027,3.472,6.704,4.688,8.45c1.143,1.643,2.632,3.161,4.073,4.632c2.656,2.706,5.164,5.264,5.383,8.229
			c0.02,0.268,0.243,0.476,0.511,0.476h3.12c0.141,0,0.276-0.057,0.372-0.159c0.097-0.103,0.148-0.238,0.141-0.38
			c-0.026-0.557-0.108-1.117-0.24-1.679h0.002c-0.005-0.017-0.008-0.034-0.008-0.052c0-0.112,0.089-0.207,0.205-0.207
			c0.01,0,0.019,0.002,0.028,0.003l0,0c2.547,0.374,4.157,0.968,4.159,1.624c0,0,0,0,0,0.002c0,0.618-1.447,1.55-3.8,2.234h-0.001
			c-0.208,0.06-0.362,0.249-0.362,0.473c0,0.273,0.226,0.494,0.503,0.494c0.038,0,0.075-0.004,0.111-0.012
			c3.164-0.733,5.259-1.962,5.259-3.349C24.144,19.129,21.31,17.658,17.091,16.994z"/>
		<path fill="#003366" d="M8.725,15.386c-0.064-0.065-0.191-0.154-0.363-0.154c-0.233,0-0.372,0.148-0.423,0.228
			c-0.34,0.519-0.638,1.029-0.895,1.536C2.829,17.661,0,19.131,0,20.779c0,1.388,2.082,2.614,5.25,3.347c0,0,0.003,0,0.005,0
			C5.292,24.134,5.33,24.14,5.37,24.14c0.278,0,0.502-0.221,0.502-0.494c0-0.222-0.152-0.41-0.361-0.47L5.51,23.173
			c-2.353-0.685-3.8-1.616-3.8-2.234c0-0.002,0-0.002,0-0.002c0.002-0.655,1.608-1.249,4.148-1.622
			c0.009-0.002,0.017-0.003,0.026-0.003c0.118,0,0.207,0.096,0.207,0.21c0,0.018-0.003,0.034-0.007,0.05l0.003,0.003
			c-0.132,0.559-0.212,1.116-0.239,1.672c-0.006,0.139,0.044,0.277,0.142,0.381c0.097,0.101,0.233,0.159,0.372,0.159h3.12
			c0.267,0,0.494-0.21,0.513-0.478c0.067-0.912,0.354-1.826,0.87-2.789c0.18-0.332,0.041-0.644-0.063-0.777
			C10.29,17.075,9.661,16.363,8.725,15.386z"/>
		<path fill="#003366" d="M11.713,7.681c0.123,0.12,0.262,0.143,0.359,0.143l0,0c0.097,0,0.237-0.023,0.36-0.143
			c1.099-1.068,1.692-2.316,1.82-2.663C14.27,4.966,14.29,4.91,14.29,4.829c0-0.276-0.23-0.476-0.472-0.476
			c-0.199,0-0.765,0.06-1.743,0.06h-0.006c-0.977,0-1.544-0.06-1.743-0.06c-0.242,0-0.472,0.199-0.472,0.476
			c0,0.081,0.019,0.138,0.038,0.189C10.022,5.364,10.613,6.612,11.713,7.681z"/>
	</g>
</g>
</svg>
